<svg width="110" height="69" viewBox="0 0 110 69" fill="none" xmlns="http://www.w3.org/2000/svg">
<g clip-path="url(#clip0_855_671)">
<path d="M5.68393 35.6454C5.40187 35.3447 5.07281 35.1073 4.69673 34.949C4.32066 34.7907 3.92892 34.6957 3.50584 34.6957C3.09842 34.6957 2.69101 34.7749 2.31494 34.9332C1.93886 35.1073 1.59413 35.3447 1.32774 35.6296C1.04569 35.9145 0.810644 36.2627 0.669616 36.6426C0.512919 37.0225 0.43457 37.434 0.43457 37.8456C0.43457 38.2571 0.497249 38.6686 0.653946 39.0485C0.810644 39.4284 1.03002 39.7766 1.32774 40.0615C1.89185 40.663 2.67534 40.9954 3.50584 40.9796C4.32066 40.9796 5.11982 40.6472 5.68393 40.0615C5.98165 39.7766 6.20103 39.4442 6.35772 39.0643C6.51442 38.6845 6.59277 38.2888 6.59277 37.8614C6.59277 37.434 6.51442 37.0383 6.35772 36.6584C6.18536 36.2786 5.96598 35.9303 5.66826 35.6454H5.68393ZM42.1474 28.5069C42.1004 30.4854 42.1944 32.4639 42.4294 34.4267H42.3197C42.069 33.936 41.5362 33.0496 40.7058 31.7358L20.8365 0.22168H14.8037V40.4256H19.4419V11.3648C19.489 9.52872 19.4106 7.69264 19.2226 5.84073H19.3949C19.724 6.72711 20.1471 7.56601 20.6642 8.35743L41.0662 40.4256H46.7699V0.22168H42.1317V28.491L42.1474 28.5069ZM78.2034 36.0253H61.8285V22.0806H76.1663V17.8386H61.8285V4.47949H77.2005V0.22168H57.0806V40.4256H78.1721L78.2034 36.0095V36.0253ZM81.7448 0.22168V4.47949H93.1523V40.4256H97.7905V4.47949H109.339V0.22168H81.7448ZM36.3182 50.4291C35.1587 50.8881 34.1088 51.6004 33.247 52.5184C32.3538 53.4839 31.6643 54.6077 31.2099 55.8424C30.7555 57.077 30.5518 58.3907 30.6145 59.7045C30.5204 62.1262 31.3666 64.5163 32.9649 66.3207C33.7641 67.1754 34.7356 67.8402 35.8168 68.2676C36.898 68.6949 38.0576 68.9007 39.2171 68.8532C40.9565 68.9165 42.6958 68.5525 44.2628 67.7769V65.7192C42.8368 66.5739 41.1915 67.0013 39.5149 66.9538C38.6217 66.9855 37.7128 66.8272 36.898 66.4948C36.0832 66.1624 35.3154 65.6242 34.7043 64.9595C33.435 63.4558 32.7769 61.5247 32.8709 59.562C32.7612 57.4727 33.4663 55.4308 34.8296 53.8638C35.4721 53.1357 36.2712 52.5817 37.1487 52.186C38.0262 51.8061 38.9821 51.6162 39.9379 51.6479C41.4579 51.6162 42.9622 51.9961 44.2941 52.74V50.524C42.9152 49.9542 41.4266 49.701 39.9379 49.7485C38.7 49.7326 37.4464 49.9542 36.3026 50.4132L36.3182 50.4291ZM58.0365 56.7287C56.8612 55.4783 55.2002 54.8135 53.4922 54.8927C52.5991 54.8452 51.7059 55.0035 50.8754 55.32C50.0449 55.6366 49.2771 56.1431 48.6346 56.7604C48.0078 57.4568 47.5221 58.2799 47.2087 59.1821C46.8953 60.0843 46.7699 61.0182 46.8326 61.9679C46.7386 63.7723 47.3654 65.5451 48.5563 66.8905C49.1517 67.5395 49.8569 68.046 50.6717 68.3942C51.4709 68.7266 52.3327 68.9007 53.1945 68.8532C54.072 68.8849 54.9495 68.7108 55.78 68.3625C56.5948 68.0143 57.3313 67.5078 57.9268 66.843C59.149 65.4501 59.7758 63.6299 59.6818 61.778C59.7915 59.9261 59.196 58.1216 58.0521 56.7129L58.0365 56.7287ZM56.4382 65.7667C55.6547 66.6689 54.5108 67.1596 53.3355 67.0963C52.7401 67.1279 52.1446 67.0013 51.5962 66.7797C51.0478 66.5423 50.562 66.1941 50.1546 65.735C49.3241 64.6904 48.901 63.3766 48.9794 62.0312C48.901 60.6542 49.3241 59.2929 50.1546 58.2008C50.5463 57.7417 51.0321 57.3777 51.5805 57.1403C52.129 56.9028 52.7244 56.792 53.3199 56.8079C53.9153 56.7762 54.4951 56.887 55.0435 57.1244C55.592 57.3619 56.0621 57.7259 56.4538 58.1849C57.253 59.2929 57.629 60.6383 57.535 61.9996C57.629 63.345 57.2373 64.6904 56.4538 65.7667H56.4382ZM66.5294 55.874C65.8713 56.4597 65.4012 57.2352 65.1662 58.09V55.32H62.9881V68.5525H65.1662V61.8096C65.1035 60.5908 65.4169 59.3562 66.0594 58.3274C66.2944 57.9475 66.6078 57.631 66.9839 57.4094C67.3599 57.1878 67.7987 57.0611 68.2218 57.0453C68.7859 56.9978 69.3343 57.1561 69.8044 57.4727V55.2884C69.397 55.1617 68.9896 55.0984 68.5665 55.1142C67.8144 55.1142 67.0936 55.3833 66.5138 55.874H66.5294ZM82.5596 61.3348C82.6693 59.657 82.1678 57.995 81.165 56.6654C80.6635 56.0956 80.0524 55.6524 79.3629 55.3675C78.6735 55.0826 77.937 54.9401 77.2005 54.9876C76.3857 54.956 75.5552 55.1301 74.8031 55.4625C74.0509 55.7949 73.3771 56.3014 72.8443 56.9345C71.6691 58.3274 71.0423 60.1318 71.1207 61.9521C71.011 63.7882 71.5751 65.5926 72.7033 67.0171C73.2518 67.6186 73.9256 68.0935 74.6777 68.41C75.4299 68.7266 76.2447 68.8532 77.0595 68.8216C78.6735 68.9007 80.2718 68.4575 81.6037 67.5711V65.5768C80.4598 66.5106 79.0339 67.033 77.5453 67.0488C76.9812 67.0805 76.4014 67.0013 75.8686 66.7797C75.3358 66.5581 74.8501 66.2574 74.4427 65.8458C73.6592 64.8961 73.2674 63.6774 73.3301 62.4428H82.5439V61.3031L82.5596 61.3348ZM73.3301 60.7175C73.4398 59.6728 73.8942 58.6914 74.615 57.9159C75.2575 57.2194 76.1663 56.8237 77.1222 56.8395C77.5766 56.8079 78.0154 56.887 78.4384 57.0611C78.8615 57.2352 79.2219 57.5043 79.5197 57.8367C80.1308 58.6598 80.4285 59.657 80.3971 60.6858L73.3458 60.7175H73.3301Z" fill="white"/>
</g>
<defs>
<clipPath id="clip0_855_671">
<rect width="108.889" height="68.6473" fill="white" transform="translate(0.43457 0.22168)"/>
</clipPath>
</defs>
</svg>
