<svg width="88" height="85" viewBox="0 0 88 85" fill="none" xmlns="http://www.w3.org/2000/svg">
<path d="M43.7915 0.734375C21.8477 0.734375 23.2218 10.0375 23.2218 10.0375V19.6664H44.1663V22.5571H14.9357C14.9357 22.5571 0.90332 21.01 0.90332 42.6495C0.90332 64.289 13.1452 63.5155 13.1452 63.5155H20.4528V53.4794C20.4528 53.4794 20.0573 41.5095 32.5073 41.5095H53.2644C53.2644 41.5095 64.9233 41.6927 64.9233 30.4964V11.9511C64.9233 11.9511 66.7138 0.734375 43.7915 0.734375ZM32.2575 7.20791C34.3395 7.20791 36.0258 8.85683 36.0258 10.8925C36.0258 12.9282 34.3395 14.5772 32.2575 14.5772C30.1756 14.5772 28.4892 12.9282 28.4892 10.8925C28.4892 8.85683 30.1756 7.20791 32.2575 7.20791Z" fill="white"/>
<path d="M44.4164 84.7683C66.3393 84.7683 64.9861 75.4651 64.9861 75.4651V65.8363H44.0416V62.9456H73.2722C73.2722 62.9456 87.3046 64.4927 87.3046 42.8735C87.3046 21.2544 75.0627 22.0076 75.0627 22.0076H67.7551V32.0436C67.7551 32.0436 68.1506 44.0135 55.7006 44.0135H34.9435C34.9435 44.0135 23.2846 43.8303 23.2846 55.0267V73.5516C23.2846 73.5516 21.5149 84.7683 44.4372 84.7683H44.4164ZM55.9504 78.2948C53.8684 78.2948 52.1821 76.6459 52.1821 74.6102C52.1821 72.5745 53.8684 70.9255 55.9504 70.9255C58.0323 70.9255 59.7187 72.5745 59.7187 74.6102C59.7187 76.6459 58.0323 78.2948 55.9504 78.2948Z" fill="white"/>
</svg>
