<svg width="94" height="85" viewBox="0 0 94 85" fill="none" xmlns="http://www.w3.org/2000/svg">
<g clip-path="url(#clip0_855_657)">
<path d="M46.751 50.3746C51.3609 50.3746 55.0938 46.6045 55.0938 41.9486C55.0938 37.2926 51.3609 33.5225 46.751 33.5225C42.1411 33.5225 38.4082 37.2926 38.4082 41.9486C38.4082 46.6045 42.1411 50.3746 46.751 50.3746Z" fill="white"/>
<path d="M46.7512 61.2766C35.0353 61.2766 24.7811 59.8685 17.0904 57.2339C6.54382 53.6 0 47.7403 0 41.9488C0 36.1573 6.07159 30.9109 16.2134 27.3451C24.5337 24.4153 35.3726 22.8027 46.7512 22.8027C57.9049 22.8027 68.5864 24.3926 76.8843 27.277C87.2959 30.8882 93.5024 36.3844 93.5024 41.9715C93.5024 47.5586 86.7112 53.6454 75.8049 57.2793C68.0692 59.8685 57.7475 61.2993 46.7512 61.2993V61.2766ZM46.7512 26.8227C35.9798 26.8227 25.3432 28.3898 17.5401 31.138C8.1854 34.4312 4.00275 38.9281 4.00275 41.9488C4.00275 44.9695 8.50022 49.9888 18.3947 53.4183C25.6581 55.9166 35.4626 57.2566 46.7512 57.2566C57.3428 57.2566 67.2147 55.8939 74.5456 53.441C84.8223 50.0115 89.4997 45.083 89.4997 41.9488C89.4997 39.0417 85.1371 34.3858 75.58 31.0698C67.7094 28.3217 57.4777 26.8227 46.7512 26.8227Z" fill="white"/>
<path d="M27.8164 83.9883C26.1298 83.9883 24.6232 83.6249 23.3189 82.8754C18.5291 80.1046 16.8875 72.0646 18.8889 61.39C20.5305 52.6459 24.5557 42.3575 30.245 32.4097C35.8219 22.6663 42.5231 14.0812 49.1119 8.28971C57.4322 0.976498 65.2353 -1.7035 70.0251 1.09006C74.9949 3.97446 76.6364 12.8548 74.3202 24.2107C72.6787 32.2734 68.7434 41.9941 63.2565 51.6466C57.4097 61.9124 51.0683 70.1795 44.9742 75.5622C38.7677 81.0357 32.6062 84.011 27.8164 84.011V83.9883ZM33.7081 34.4083C28.3336 43.8337 24.3533 53.9405 22.8242 62.1168C20.9802 71.951 22.7567 77.8561 25.3203 79.3551C28.0188 80.9222 34.4726 79.4459 42.3432 72.4961C48.1225 67.3859 54.1491 59.4822 59.7934 49.6026C65.0779 40.3361 68.8558 31.0243 70.4074 23.3704C72.5887 12.6731 70.6998 6.10937 68.0238 4.54226C65.5277 3.0887 59.3661 4.58768 51.7204 11.2877C45.4465 16.8067 39.0376 25.0056 33.6856 34.3856L33.7081 34.4083Z" fill="white"/>
<path d="M65.7077 84.0337C61.1877 84.0337 55.431 81.2629 49.4493 76.0619C42.7706 70.2477 35.9569 61.5944 30.2676 51.6466C24.6907 41.9033 20.688 31.7738 19.0014 23.0751C16.8876 12.1735 18.4842 3.97449 23.274 1.18093C28.2437 -1.72619 36.6765 1.27178 45.2667 8.97109C51.3607 14.4446 57.7472 22.7345 63.2566 32.3643C69.1258 42.6073 73.061 52.2826 74.6352 60.2999C76.7939 71.3378 75.0624 79.991 70.1152 82.8981C68.8334 83.6476 67.3717 84.011 65.7302 84.011L65.7077 84.0337ZM33.7082 49.648C39.1051 59.0507 45.7839 67.5677 52.0578 73.0185C59.5686 79.5368 65.5278 80.9449 68.1138 79.4459C70.7898 77.8788 72.7462 71.4741 70.7224 61.1175C69.2382 53.509 65.4603 44.2653 59.7935 34.4084C54.4865 25.1646 48.3924 17.1928 42.5907 12.0145C34.4952 4.74669 27.9289 3.13415 25.2529 4.70126C22.7568 6.15482 20.9578 12.287 22.9142 22.3257C24.5108 30.5928 28.3562 40.2907 33.7082 49.648Z" fill="white"/>
</g>
<defs>
<clipPath id="clip0_855_657">
<rect width="93.5024" height="84.0338" fill="white"/>
</clipPath>
</defs>
</svg>
